<svg width="190" height="50" viewBox="0 0 190 50" fill="none" xmlns="http://www.w3.org/2000/svg">
  <defs>
    <linearGradient id="silver" x1="0" y1="8" x2="190" y2="42" gradientUnits="userSpaceOnUse">
      <stop offset="0%" stop-color="#E2E8F0"/>
      <stop offset="45%" stop-color="#CBD5E1"/>
      <stop offset="100%" stop-color="#94A3B8"/>
    </linearGradient>
  </defs>
  <!-- All elements use the same gradient instance -->
  <g stroke="url(#silver)">
    <line x1="19.6" y1="5.9" x2="4.9" y2="44.1" stroke-width="2" stroke-linecap="round"/>
    <line x1="19.6" y1="5.9" x2="34.3" y2="44.1" stroke-width="2" stroke-linecap="round"/>
    <line x1="12.8" y1="23.5" x2="30.3" y2="33.8" stroke-width="1.6" stroke-linecap="round"/>
    <line x1="26.4" y1="23.5" x2="8.9" y2="33.8" stroke-width="1.6" stroke-linecap="round"/>
  </g>
  <!-- Single combined text path -->
  <path d="M48.02285714285715 38.0H54.24L55.97714285714286 30.96H67.40571428571428L69.14285714285714 38.0H75.36L66.94857142857143 6.0H56.43428571428572ZM57.394285714285715 25.38285714285714 61.28 9.794285714285714H62.10285714285715L65.98857142857143 25.38285714285714Z M77.37142857142857 38.0H84.13714285714286L89.30285714285715 30.365714285714287H90.12571428571428L95.29142857142858 38.0H102.05714285714286L93.82857142857142 26.57142857142857L101.96571428571428 15.325714285714287H95.29142857142858L90.12571428571428 22.86857142857143H89.30285714285715L84.13714285714286 15.325714285714287H77.46285714285715L85.6 26.57142857142857Z M108.91428571428571 47.14285714285714H123.17714285714285C126.19428571428571 47.14285714285714 128.2057142857143 45.13142857142857 128.2057142857143 42.02285714285714V15.325714285714287H122.44571428571429V26.845714285714287C122.44571428571429 31.051428571428573 120.38857142857142 33.519999999999996 116.86857142857143 33.519999999999996C113.76 33.519999999999996 112.02285714285715 31.82857142857143 112.02285714285715 28.4V15.325714285714287H106.26285714285714V28.857142857142858C106.26285714285714 34.48 109.78285714285714 38.36571428571428 115.08571428571429 38.36571428571428C119.15428571428572 38.36571428571428 120.98285714285714 36.582857142857144 121.71428571428572 35.028571428571425H122.53714285714285V40.74285714285714C122.53714285714285 41.65714285714286 122.08 42.114285714285714 121.25714285714285 42.114285714285714H108.91428571428571Z M134.60571428571427 38.0H140.3657142857143V26.48C140.3657142857143 22.274285714285714 142.42285714285714 19.805714285714284 145.94285714285715 19.805714285714284C149.05142857142857 19.805714285714284 150.78857142857143 21.497142857142858 150.78857142857143 24.925714285714285V38.0H156.54857142857142V24.46857142857143C156.54857142857142 18.845714285714287 153.0285714285714 14.96 147.72571428571428 14.96C143.65714285714284 14.96 141.82857142857142 16.742857142857144 141.09714285714284 18.29714285714286H140.27428571428572V15.325714285714287H134.60571428571427Z M173.4171428571429 38.64C179.90857142857146 38.64 183.6114285714286 34.84571428571429 184.8 29.954285714285714L179.22285714285715 28.628571428571426C178.72000000000003 31.554285714285715 177.02857142857144 33.519999999999996 173.55428571428573 33.519999999999996C170.08 33.519999999999996 167.42857142857144 31.18857142857143 167.42857142857144 26.89142857142857V26.434285714285714C167.42857142857144 22.137142857142855 170.08 19.805714285714284 173.55428571428573 19.805714285714284C177.02857142857144 19.805714285714284 178.72000000000003 21.908571428571427 179.08571428571432 24.65142857142857L184.66285714285715 23.462857142857143C183.70285714285717 18.434285714285714 179.90857142857146 14.685714285714287 173.4171428571429 14.685714285714287C166.83428571428573 14.685714285714287 161.66857142857145 18.937142857142856 161.66857142857145 26.34285714285714V26.982857142857142C161.66857142857145 34.38857142857143 166.83428571428573 38.64 173.4171428571429 38.64Z" fill="url(#silver)"/>
</svg>